<!--?xml version="1.0" encoding="utf-8"?-->
<!-- Generator: Adobe Illustrator 18.1.1, SVG Export Plug-In . SVG Version: 6.00 Build 0)  -->

<svg version="1.1" id="_x31_0" xmlns="http://www.w3.org/2000/svg" xmlns:xlink="http://www.w3.org/1999/xlink" x="0px" y="0px" viewBox="0 0 512 512" style="width: 256px; height: 256px; opacity: 1;" xml:space="preserve">
<style type="text/css">
	.st0{fill:#374149;}
</style>
<g>
	<polygon class="st0" points="504.752,149.95 504.678,149.984 504.678,149.805 427.252,190.438 427.252,283.191 381.17,307.558 
		359.725,318.817 359.725,255.805 359.802,226.285 359.725,226.324 359.725,226.141 278.466,268.828 278.466,512 504.678,392.778 
		504.678,226.336 	" style="fill: rgb(75, 75, 75);"></polygon>
	<polygon class="st0" points="403.842,155.55 450.478,131.047 477.596,116.906 477.498,116.855 477.67,116.762 255.959,0 
		208.713,24.875 181.982,38.848 182.08,38.898 181.908,38.988 	" style="fill: rgb(75, 75, 75);"></polygon>
	<polygon class="st0" points="336.24,191.191 336.146,191.141 336.318,191.05 114.607,74.488 63.377,101.519 34.557,116.621 
		34.654,116.672 34.482,116.762 255.959,233.328 307.186,206.379 	" style="fill: rgb(75, 75, 75);"></polygon>
	<polygon class="st0" points="7.408,149.805 7.408,149.886 7.248,149.805 7.248,392.778 233.451,512 233.451,268.828 
		79.217,187.672 	" style="fill: rgb(75, 75, 75);"></polygon>
</g>
</svg>
