<?xml version="1.0" encoding="UTF-8" standalone="no"?>
<svg
   xmlns:dc="http://purl.org/dc/elements/1.1/"
   xmlns:cc="http://creativecommons.org/ns#"
   xmlns:rdf="http://www.w3.org/1999/02/22-rdf-syntax-ns#"
   xmlns:svg="http://www.w3.org/2000/svg"
   xmlns="http://www.w3.org/2000/svg"
   viewBox="0 0 1375.7467 971.33331"
   height="971.33331"
   width="1375.7467"
   xml:space="preserve"
   id="svg2"
   version="1.1"><metadata
     id="metadata8"><rdf:RDF><cc:Work
         rdf:about=""><dc:format>image/svg+xml</dc:format><dc:type
           rdf:resource="http://purl.org/dc/dcmitype/StillImage" /></cc:Work></rdf:RDF></metadata><defs
     id="defs6"><clipPath
       id="clipPath18"
       clipPathUnits="userSpaceOnUse"><path
         id="path16"
         d="M 0,728.5 H 1031.81 V 0 H 0 Z" /></clipPath></defs><g
     transform="matrix(1.3333333,0,0,-1.3333333,0,971.33333)"
     id="g10"><g
       id="g12"><g
         clip-path="url(#clipPath18)"
         id="g14"><g
           transform="translate(60.6149,373.5354)"
           id="g20"><path
             id="path22"
             style="fill:#231f20;fill-opacity:1;fill-rule:nonzero;stroke:none"
             d="m 0,0 c 2.909,0.509 5.811,1.06 8.727,1.519 10.215,1.607 20.298,3.815 30.296,6.446 9.617,2.531 19.244,5.04 28.585,8.462 7.96,2.916 15.901,5.922 23.683,9.278 11.963,5.159 23.802,10.608 35.655,16.018 8.495,3.876 16.692,8.328 24.583,13.321 7.236,4.578 14.586,9 21.593,13.909 10.684,7.484 21.391,14.939 31.247,23.565 6.759,5.916 13.38,11.951 19.633,18.387 5.442,5.602 11.027,11.091 16.116,17.002 6.242,7.251 12.024,14.897 18.026,22.355 2.071,2.573 4.208,5.092 6.314,7.636 0.149,-0.088 0.298,-0.176 0.447,-0.265 -0.181,-0.42 -0.316,-0.867 -0.548,-1.257 -4.777,-8.025 -9.505,-16.08 -14.368,-24.053 -4.178,-6.851 -8.603,-13.552 -12.757,-20.417 -7.479,-12.358 -14.841,-24.787 -22.245,-37.191 -3.761,-6.298 -7.683,-12.508 -11.216,-18.931 -4.352,-7.914 -8.369,-16.012 -12.543,-24.024 -3.776,-7.247 -7.618,-14.459 -11.34,-21.733 -4.819,-9.418 -9.523,-18.894 -14.321,-28.323 -5.962,-11.72 -10.445,-24.063 -15.077,-36.325 -1.755,-4.646 -2.37,-9.725 -3.457,-14.618 -0.3,-1.35 -0.508,-2.731 -0.625,-4.109 -0.295,-3.498 -0.102,-6.932 1.713,-10.08 2.184,-3.786 5.475,-4.012 8.734,-2.429 8.651,4.202 16.101,10.006 22.45,17.243 2.954,3.367 6.084,6.58 9.044,9.942 4.81,5.464 8.66,11.626 12.711,17.644 4.537,6.74 8.539,13.788 12.281,20.982 2.171,4.174 4.155,8.45 6.068,12.75 0.587,1.32 1.247,2.066 2.693,2.466 11.364,3.144 22.701,6.387 34.047,9.6 0.863,0.244 1.725,0.492 2.991,0.854 -0.922,-2.188 -1.674,-4.011 -2.457,-5.822 -4.926,-11.407 -9.88,-22.802 -14.781,-34.22 -2.197,-5.117 -3.855,-10.403 -4.543,-15.956 -0.085,-0.684 -0.221,-1.404 -0.1,-2.065 0.413,-2.266 2.591,-3.268 4.59,-2.059 2.652,1.604 5.025,3.504 6.9,6.072 7.093,9.714 12.739,20.241 17.808,31.106 2.09,4.479 4.236,8.932 6.252,13.443 1.73,3.874 3.356,7.797 4.935,11.736 0.497,1.24 1.162,2.021 2.479,2.461 10.089,3.374 20.155,6.815 30.232,10.226 0.123,0.042 0.286,-0.032 0.636,-0.08 -0.112,-0.424 -0.169,-0.846 -0.329,-1.225 -4.249,-10.021 -8.372,-20.099 -12.822,-30.03 -2.27,-5.065 -5.072,-9.896 -7.738,-14.775 -4.222,-7.726 -8.614,-15.359 -12.786,-23.112 -5.481,-10.185 -12.38,-19.36 -19.57,-28.364 -4.288,-5.37 -9.184,-9.942 -14.93,-13.734 -3.503,-2.31 -7.34,-3.047 -11.292,-3.735 -3.124,-0.545 -6.097,0.096 -9.053,0.967 -2.868,0.845 -4.823,2.861 -6.764,5.025 -3.657,4.078 -4.81,9.047 -5.543,14.219 -0.105,0.737 -0.214,1.474 -0.383,2.636 -2.203,-2.677 -4.178,-5.01 -6.08,-7.401 -7.163,-9.005 -14.568,-17.786 -22.446,-26.194 -8.482,-9.052 -17.749,-17.195 -27.453,-24.848 -4.772,-3.763 -9.903,-7.093 -15.006,-10.412 -4.136,-2.689 -8.877,-3.896 -13.714,-4.602 -2.878,-0.42 -5.794,-0.86 -8.687,-0.826 -3.15,0.037 -6.322,0.705 -9.15,2.129 -2.925,1.474 -5.229,3.735 -6.735,6.762 -1.852,3.723 -2.58,7.72 -3.244,11.763 -0.695,4.231 -0.687,8.445 -0.155,12.683 0.73,5.812 1.359,11.637 2.14,17.441 0.784,5.827 2.377,11.473 4.051,17.098 4.294,14.42 8.736,28.796 14.024,42.886 3.499,9.321 7.041,18.645 11.072,27.742 5.159,11.646 10.813,23.074 16.295,34.576 1.019,2.138 2.229,4.185 3.351,6.273 -0.101,0.136 -0.202,0.271 -0.303,0.406 -0.683,-0.223 -1.375,-0.423 -2.048,-0.673 C 134.235,28.839 122.779,24.235 111.098,20.298 95.413,15.012 79.431,10.695 63.361,6.697 53.78,4.314 44.053,2.809 34.349,1.12 26.568,-0.234 18.739,-0.647 10.858,-0.793 7.701,-0.852 4.574,-0.605 1.431,-0.605 c -0.483,0 -0.965,0.184 -1.448,0.283 C -0.012,-0.215 -0.006,-0.107 0,0" /></g><g
           transform="translate(980.6398,499.6109)"
           id="g24"><path
             id="path26"
             style="fill:#231f20;fill-opacity:1;fill-rule:nonzero;stroke:none"
             d="m 0,0 c -4.463,-3.286 -8.926,-6.574 -13.39,-9.859 -5.909,-4.347 -11.885,-8.607 -17.709,-13.064 -5.393,-4.127 -10.691,-8.384 -15.899,-12.74 -3.018,-2.524 -5.828,-5.307 -8.643,-8.064 -4.369,-4.28 -8.618,-8.684 -12.996,-12.954 -8.868,-8.649 -17.149,-17.821 -24.871,-27.503 -6.547,-8.209 -13.199,-16.339 -19.601,-24.66 -6.941,-9.022 -12.854,-18.725 -18.173,-28.786 -2.419,-4.576 -5.026,-9.068 -7.171,-13.771 -3.329,-7.297 -6.521,-14.67 -9.421,-22.147 -2.29,-5.906 -3.247,-12.209 -4.398,-18.426 -0.434,-2.349 -0.713,-4.728 -1.014,-7.1 -0.81,-6.402 0.489,-12.329 4.47,-17.453 3.123,-4.02 6.432,-7.905 9.825,-11.702 3.757,-4.205 7.924,-8.059 11.502,-12.404 3.232,-3.926 5.845,-8.35 7.732,-13.126 0.419,-1.06 0.745,-2.209 0.834,-3.34 0.284,-3.615 0.895,-7.286 0.55,-10.855 -0.906,-9.387 -2.46,-18.611 -7.49,-26.955 -4.112,-6.821 -9.555,-12.297 -15.663,-17.21 -8.586,-6.905 -18.048,-12.468 -27.818,-17.469 -10.469,-5.359 -21.531,-9.248 -32.905,-12.218 -6.332,-1.654 -12.685,-3.232 -19.048,-4.76 -5.689,-1.366 -11.407,-2.577 -17.245,-3.189 -6.659,-0.699 -13.31,-1.493 -19.947,-2.372 -6.818,-0.904 -13.675,-1.04 -20.523,-1.454 -7.248,-0.439 -14.485,-0.804 -21.744,-0.86 -8.503,-0.067 -17.005,-0.316 -25.507,-0.312 -6.41,0.003 -12.823,0.224 -19.23,0.45 -6.862,0.243 -13.721,0.57 -20.577,0.929 -4.694,0.246 -9.382,0.608 -14.072,0.921 -4.589,0.306 -9.182,0.576 -13.767,0.936 -4.757,0.373 -9.504,0.869 -14.261,1.246 -3.229,0.256 -6.473,0.333 -9.7,0.611 -3.909,0.337 -7.805,0.814 -11.71,1.204 -3.525,0.352 -7.058,0.626 -10.579,1.009 -5.05,0.549 -10.093,1.163 -15.139,1.754 -4.358,0.51 -8.723,0.97 -13.072,1.555 -5.72,0.769 -11.438,1.574 -17.136,2.49 -3.643,0.586 -7.252,1.392 -10.87,2.124 -0.595,0.12 -1.163,0.372 -2.017,0.653 0.442,0.27 0.677,0.541 0.878,0.518 4.588,-0.521 9.167,-1.121 13.759,-1.604 2.914,-0.306 5.846,-0.434 8.768,-0.662 5.222,-0.409 10.44,-0.878 15.666,-1.237 4.004,-0.275 8.018,-0.386 12.025,-0.626 6.539,-0.392 13.074,-0.856 19.614,-1.234 2.316,-0.134 4.641,-0.128 6.962,-0.149 13.537,-0.12 27.074,-0.31 40.61,-0.314 8.348,-0.003 16.697,0.205 25.041,0.466 4.698,0.147 9.414,0.376 14.071,0.964 4.843,0.612 9.698,0.585 14.541,0.915 8.838,0.603 17.688,1.246 26.472,2.359 9.78,1.24 19.548,2.731 29.213,4.657 8.075,1.609 15.998,3.984 23.98,6.054 13.93,3.611 27.18,9.102 40.344,14.79 5.473,2.365 10.41,5.739 15.209,9.269 6.222,4.576 12.505,9.077 18.586,13.835 6.339,4.961 11.969,10.654 16.91,17.061 3.014,3.908 5.387,8.119 6.98,12.708 1.581,4.557 2.225,9.389 1.201,14.151 -1.055,4.903 -3.511,9.181 -7.079,12.795 -3.336,3.38 -7.076,6.184 -11.236,8.463 -6.289,3.445 -11.713,7.991 -16.532,13.267 -2.158,2.362 -2.925,5.412 -3.725,8.384 -0.874,3.247 -0.56,6.574 -0.345,9.891 0.464,7.15 3.275,13.598 5.858,20.125 4.888,12.349 11.302,23.907 18.914,34.727 5.37,7.63 11.228,14.963 17.363,21.997 6.802,7.798 14.129,15.142 21.303,22.611 4.929,5.132 9.913,10.215 15.005,15.185 4.81,4.695 9.675,9.348 14.728,13.778 7.545,6.618 15.081,13.273 22.978,19.457 10.092,7.904 20.494,15.415 30.846,22.98 7.992,5.84 16.443,10.985 24.97,16.002 3.46,2.035 6.879,4.139 10.361,6.135 1.233,0.708 2.596,1.188 3.9,1.772 C -0.17,0.413 -0.085,0.206 0,0" /></g><g
           transform="translate(481.1251,304.5333)"
           id="g28"><path
             id="path30"
             style="fill:#231f20;fill-opacity:1;fill-rule:nonzero;stroke:none"
             d="M 0,0 C 2.325,3.437 26.388,51.755 26.71,53.655 26.442,53.729 26.161,53.882 25.887,53.87 22.496,53.726 19.104,53.601 15.718,53.381 13.143,53.213 11.233,51.964 10,49.64 9.313,48.347 8.472,47.133 7.673,45.901 -0.739,32.918 -8.412,19.523 -14.885,5.46 -15.397,4.347 -15.804,3.167 -16.107,1.979 -16.466,0.57 -16.098,0.029 -14.744,0.017 -9.798,-0.026 -4.851,0 0,0 m 108.836,212.619 c -1.573,-0.516 -2.795,-0.9 -4.006,-1.317 -10.857,-3.747 -21.652,-7.682 -32.584,-11.195 -9.746,-3.132 -19.672,-5.699 -29.461,-8.706 -6.358,-1.953 -12.916,-2.844 -19.405,-4.096 -8.23,-1.588 -16.495,-2.989 -24.848,-3.826 -6.968,-0.699 -13.925,-1.516 -20.883,-2.313 -5.434,-0.622 -10.868,-1.133 -16.336,-1.47 -7.273,-0.448 -14.503,0.167 -21.744,0.295 -6.762,0.12 -13.479,1.21 -20.147,2.487 -4.306,0.825 -8.678,1.308 -13.008,2.018 -2.008,0.329 -3.987,0.834 -5.959,1.691 0.482,0.033 0.962,0.083 1.444,0.098 5.25,0.16 10.5,0.302 15.75,0.475 4.012,0.133 8.028,0.211 12.032,0.478 8.382,0.56 16.795,0.912 25.122,1.938 9.089,1.121 18.111,2.824 27.133,4.433 7.201,1.284 14.374,2.736 21.529,4.254 4.518,0.958 9.017,2.051 13.463,3.3 8.752,2.459 17.468,5.044 26.185,7.626 5.91,1.751 11.835,3.469 17.682,5.416 6.066,2.02 12.069,4.238 18.058,6.48 8.373,3.134 16.804,6.143 25.035,9.619 12.106,5.112 23.625,11.411 34.779,18.359 6.161,3.839 12.313,7.695 18.4,11.649 2.456,1.595 4.757,3.435 7.074,5.235 1.085,0.843 2.04,1.854 3.237,2.959 -0.054,-0.504 0.008,-0.878 -0.138,-1.135 -1.667,-2.95 -3.346,-5.894 -5.059,-8.819 -4.685,-7.996 -9.543,-15.896 -14.044,-23.994 -6.529,-11.748 -12.866,-23.603 -19.17,-35.474 -6.849,-12.896 -13.564,-25.864 -20.343,-38.799 -4.985,-9.512 -9.981,-19.018 -14.967,-28.529 C 86.95,118.959 80.233,106.167 73.551,93.357 70.841,88.161 68.258,82.9 65.532,77.713 62.304,71.568 58.965,65.483 55.712,59.352 51.908,52.186 48.1,45.021 44.373,37.815 36.28,22.165 28.215,6.5 20.202,-9.191 c -1.011,-1.979 -2.128,-2.877 -4.574,-2.858 -18.348,0.14 -36.698,0.076 -55.048,0.077 -4.51,0 -6.404,1.761 -6.816,6.286 -0.179,1.974 0.146,3.801 1.098,5.572 4.572,8.505 9.106,17.03 13.631,25.559 3.621,6.825 7.206,13.669 10.815,20.5 2.093,3.962 4.153,7.942 6.328,11.859 0.819,1.474 1.883,2.82 2.905,4.172 0.969,1.281 2.255,1.907 3.911,2.18 4.365,0.72 8.738,0.891 13.15,0.906 8.968,0.029 17.936,0.203 26.904,0.321 0.306,0.004 0.612,0.052 1.103,0.096 0.67,1.302 1.373,2.664 2.071,4.027 5.317,10.379 10.661,20.744 15.941,31.141 5.04,9.926 10,19.892 15.02,29.828 5.262,10.418 10.517,20.839 15.846,31.222 3.774,7.354 7.685,14.637 11.5,21.97 2.53,4.865 4.977,9.773 7.501,14.64 2.205,4.251 4.47,8.47 6.698,12.709 0.201,0.383 0.329,0.805 0.65,1.603" /></g><g
           transform="translate(780.4059,379.8794)"
           id="g32"><path
             id="path34"
             style="fill:#231f20;fill-opacity:1;fill-rule:nonzero;stroke:none"
             d="m 0,0 h -20.798 c 1.208,2.358 2.23,4.391 3.287,6.406 0.753,1.436 1.685,2.793 2.291,4.286 0.537,1.322 1.362,1.666 2.676,1.655 5.419,-0.046 10.839,-0.019 16.258,-0.019 0.848,0 1.696,0 2.743,0 6.623,12.839 13.238,25.663 19.872,38.524 0.091,0.032 0.233,0.123 0.376,0.125 7.729,0.13 15.458,0.255 23.186,0.37 0.678,0.01 1.357,-0.059 2.441,-0.11 C 49.233,44.512 45.715,38.29 42.508,31.917 39.284,25.51 35.944,19.161 32.489,12.467 38.194,12.102 43.692,12.541 49.461,12.205 47.833,9.196 46.116,6.532 44.91,3.654 43.628,0.597 41.672,-0.34 38.46,-0.05 35.004,0.262 31.497,-0.039 28.016,0.049 26.597,0.085 25.766,-0.351 25.115,-1.658 22.531,-6.845 19.837,-11.977 17.188,-17.132 10.019,-31.084 2.855,-45.04 -4.317,-58.991 c -2.119,-4.122 -4.259,-8.235 -6.389,-12.352 -0.571,-1.104 -1.136,-2.209 -0.655,-3.563 1.746,-0.975 3.675,-1.02 5.601,-1.028 4.331,-0.018 8.663,-0.006 13.316,-0.006 -0.844,-1.601 -1.626,-3.126 -2.445,-4.631 -0.998,-1.831 -2.047,-3.634 -3.035,-5.469 -0.487,-0.905 -1.114,-1.441 -2.209,-1.288 -0.456,0.064 -0.928,0.009 -1.392,0.009 -36.233,0 -72.465,-0.003 -108.697,0.015 -1.3,0.001 -2.61,0.159 -3.896,0.36 -1.809,0.284 -2.572,1.048 -2.82,2.841 -0.396,2.871 -0.37,5.723 0.899,8.416 1.744,3.699 3.436,7.426 5.307,11.06 3.784,7.35 7.676,14.643 11.517,21.962 5.996,11.424 11.989,22.85 17.976,34.278 1.251,2.389 2.472,4.794 3.83,7.43 5.95,-6.732 11.787,-13.334 17.714,-20.04 -0.718,-1.471 -1.393,-2.936 -2.136,-4.365 -3.673,-7.06 -7.363,-14.11 -11.047,-21.164 -3.648,-6.985 -7.302,-13.967 -10.937,-20.96 -0.677,-1.302 -1.354,-2.616 -1.871,-3.985 -0.266,-0.707 -0.181,-1.547 -0.282,-2.609 4.46,0 8.557,0.043 12.653,-0.026 1.235,-0.021 1.805,0.59 2.288,1.556 1.105,2.211 2.248,4.404 3.379,6.603 5.62,10.925 11.232,21.854 16.867,32.771 4.323,8.376 8.675,16.738 13.018,25.104 0.174,0.336 0.384,0.653 0.736,1.246 0.797,-0.537 1.592,-0.95 2.239,-1.528 4.721,-4.221 9.407,-8.48 14.119,-12.711 0.631,-0.567 1.346,-1.041 2.12,-1.632 -8.894,-17.162 -17.592,-33.948 -26.383,-50.913 1.402,-1.729 2.844,-3.508 4.45,-5.489 C -26.99,-52.736 -13.577,-26.529 0,0" /></g><g
           transform="translate(658.1176,358.2768)"
           id="g36"><path
             id="path38"
             style="fill:#231f20;fill-opacity:1;fill-rule:nonzero;stroke:none"
             d="m 0,0 c -0.903,0.078 -1.285,0.149 -1.665,0.137 -3.313,-0.108 -6.627,-0.341 -9.939,-0.311 -2.308,0.021 -3.825,-0.989 -4.848,-2.899 -2.187,-4.086 -4.321,-8.2 -6.492,-12.294 -3.22,-6.073 -6.464,-12.133 -9.678,-18.208 -2.204,-4.165 -4.592,-8.25 -6.497,-12.548 -1.7,-3.837 -2.507,-5.193 3.284,-5.276 2.617,-0.037 5.237,0.199 7.855,0.315 0.611,0.028 1.222,0.074 1.942,0.118 C -17.407,-34.073 -8.786,-17.198 0,0 m -33.894,-66.64 c 0.451,1.062 0.737,1.733 1.136,2.674 -1.047,0 -1.869,0 -2.691,0 -9.907,0 -19.815,0 -29.723,0 -0.619,0 -1.239,-0.019 -1.857,0.007 -4.023,0.173 -6.707,3.833 -5.579,7.727 0.405,1.396 1,2.755 1.653,4.058 7.136,14.219 14.411,28.369 22.453,42.102 3.08,5.26 6.385,10.389 9.646,15.54 2.35,3.713 5.67,5.779 10.184,5.712 1.778,-0.026 3.557,0.087 5.335,0.11 9.353,0.12 18.705,0.23 28.058,0.348 0.382,0.004 0.763,0.054 1.133,0.082 0.651,0.922 1.267,1.795 1.915,2.712 h 27.46 C 34.955,13.745 34.766,13.117 34.468,12.546 29.074,2.204 23.666,-8.13 18.265,-18.467 10.896,-32.571 3.528,-46.675 -3.829,-60.784 c -0.784,-1.504 -1.519,-3.035 -2.224,-4.577 -0.347,-0.759 -0.728,-1.294 -1.684,-1.291 -8.586,0.02 -17.171,0.012 -26.157,0.012" /></g><g
           transform="translate(553.5598,383.2755)"
           id="g40"><path
             id="path42"
             style="fill:#231f20;fill-opacity:1;fill-rule:nonzero;stroke:none"
             d="m 0,0 c 1.84,-2.492 3.526,-4.762 5.197,-7.043 1.279,-1.746 2.611,-3.459 3.78,-5.277 0.765,-1.191 1.702,-1.547 3.069,-1.536 10.45,0.086 20.901,0.108 31.351,0.15 1.705,0.007 3.37,-0.111 4.955,-0.889 4.749,-2.329 5.928,-6.518 5.027,-11.484 -0.652,-3.597 -2.727,-6.539 -4.355,-9.677 -3.663,-7.063 -7.451,-14.061 -11.172,-21.094 -3.215,-6.073 -6.4,-12.162 -9.612,-18.238 -2.743,-5.19 -5.506,-10.37 -8.306,-15.638 H -5.583 c 1.001,1.992 1.886,3.85 2.854,5.665 6.502,12.202 13.022,24.395 19.535,36.591 3.382,6.333 6.767,12.664 10.138,19.004 0.907,1.706 1.031,3.384 -0.477,5.063 h -14 C 0.375,-46.501 -11.737,-68.636 -23.818,-90.715 H -48.801 C -32.501,-60.415 -16.309,-30.316 0,0" /></g><g
           transform="translate(417.2933,358.5271)"
           id="g44"><path
             id="path46"
             style="fill:#231f20;fill-opacity:1;fill-rule:nonzero;stroke:none"
             d="m 0,0 c -1.487,-2.752 -2.886,-5.322 -4.267,-7.902 -5.793,-10.821 -11.588,-21.641 -17.369,-32.469 -3.998,-7.49 -7.987,-14.984 -11.951,-22.492 -1.628,-3.084 -1.592,-3.103 -5.06,-3.103 -6.347,0 -12.694,0 -19.04,0 h -2.207 c -0.105,0.239 -0.147,0.308 -0.165,0.382 -0.017,0.071 -0.034,0.158 -0.01,0.222 0.167,0.43 0.308,0.874 0.524,1.278 15.645,29.283 31.295,58.563 46.953,87.839 0.1,0.187 0.297,0.321 0.56,0.597 0.844,-1.073 1.655,-2.074 2.433,-3.101 2.334,-3.077 4.69,-6.138 6.959,-9.262 0.761,-1.046 1.597,-1.454 2.906,-1.441 6.811,0.065 13.623,-0.006 20.433,0.045 3.471,0.027 6.942,0.164 10.409,0.336 3.936,0.196 6.793,-1.363 8.736,-4.824 0.797,-1.421 1.112,-2.834 1.019,-4.409 -0.293,-4.958 -2.021,-9.413 -4.409,-13.735 -4.103,-7.429 -7.987,-14.98 -11.968,-22.476 -3.329,-6.267 -6.673,-12.525 -9.996,-18.795 -2.058,-3.881 -4.087,-7.778 -6.137,-11.664 -0.178,-0.337 -0.419,-0.642 -0.668,-1.018 h -25.39 c 0.491,0.845 0.915,1.522 1.289,2.225 4.312,8.115 8.605,16.24 12.928,24.35 4.576,8.587 9.179,17.159 13.771,25.738 1.602,2.993 3.216,5.98 4.798,8.984 0.283,0.538 0.538,1.129 0.627,1.723 0.303,2.01 -0.437,2.933 -2.484,2.957 C 8.822,0.035 4.419,0 0,0" /></g><g
           transform="translate(358.8069,353.6753)"
           id="g48"><path
             id="path50"
             style="fill:#231f20;fill-opacity:1;fill-rule:nonzero;stroke:none"
             d="M 0,0 C 8.323,0.171 16.501,0.339 25.02,0.514 24.755,-0.303 24.652,-0.879 24.396,-1.375 20.543,-8.863 16.674,-16.342 12.8,-23.819 9.921,-29.375 7.025,-34.922 4.144,-40.477 c -3.309,-6.377 -6.624,-12.75 -9.9,-19.144 -0.513,-1.002 -1.144,-1.515 -2.325,-1.509 -7.973,0.04 -15.946,0.031 -23.918,0.043 -0.146,0.001 -0.292,0.071 -0.438,0.11 -0.036,0.07 -0.08,0.135 -0.107,0.207 -0.025,0.069 -0.072,0.165 -0.045,0.214 C -21.729,-40.367 -10.863,-20.182 0,0" /></g><g
           transform="translate(377.4532,355.6395)"
           id="g52"><path
             id="path54"
             style="fill:#231f20;fill-opacity:1;fill-rule:nonzero;stroke:none"
             d="m 0,0 c -1.973,0.56 -4.033,0.918 -5.9,1.724 -3.205,1.384 -4.532,4.226 -5.055,7.507 -1.237,7.755 1.388,14.186 6.647,19.795 2.783,2.968 6.345,4.131 10.139,4.321 C 11.46,33.63 16.615,28.963 17.399,23.343 18.131,18.089 16.86,13.162 14.108,8.821 10.918,3.788 6.358,0.458 0,0" /></g><g
           transform="translate(481.1251,304.5333)"
           id="g56"><path
             id="path58"
             style="fill:#ffffff;fill-opacity:1;fill-rule:nonzero;stroke:none"
             d="m 0,0 c -4.851,0 -9.798,-0.026 -14.744,0.017 -1.354,0.012 -1.722,0.553 -1.363,1.962 0.303,1.188 0.71,2.368 1.222,3.481 6.473,14.063 14.146,27.458 22.558,40.441 0.799,1.232 1.64,2.446 2.327,3.739 1.233,2.324 3.143,3.573 5.718,3.741 3.386,0.22 6.778,0.345 10.169,0.489 0.274,0.012 0.555,-0.141 0.823,-0.215 C 26.388,51.755 2.325,3.437 0,0" /></g><g
           transform="translate(658.1176,358.2768)"
           id="g60"><path
             id="path62"
             style="fill:#ffffff;fill-opacity:1;fill-rule:nonzero;stroke:none"
             d="m 0,0 c -8.786,-17.198 -17.407,-34.073 -26.038,-50.966 -0.72,-0.044 -1.331,-0.09 -1.942,-0.118 -2.618,-0.116 -5.238,-0.352 -7.855,-0.315 -5.791,0.083 -4.984,1.439 -3.284,5.276 1.905,4.298 4.293,8.383 6.497,12.548 3.214,6.075 6.458,12.135 9.678,18.208 2.171,4.094 4.305,8.208 6.492,12.294 1.023,1.91 2.54,2.92 4.848,2.899 3.312,-0.03 6.626,0.203 9.939,0.311 C -1.285,0.149 -0.903,0.078 0,0" /></g><g
           transform="translate(342.02,271.3828)"
           id="g64"><path
             id="path66"
             style="fill:#231f20;fill-opacity:1;fill-rule:nonzero;stroke:none"
             d="m 0,0 h -15.458 v -25.683 h -8.16 V 0 h -5.665 c -3.552,0 -5.472,-1.681 -5.76,-5.137 h -7.729 C -42.052,3.6 -37.155,7.92 -27.987,7.92 H 0 Z" /></g><g
           transform="translate(382.6274,271.3828)"
           id="g68"><path
             id="path70"
             style="fill:#231f20;fill-opacity:1;fill-rule:nonzero;stroke:none"
             d="m 0,0 h -19.49 c -6.72,0 -8.784,-2.064 -8.784,-8.978 v -8.736 h 19.489 c 6.577,0 8.785,1.92 8.785,8.881 z M 8.161,7.92 V -8.978 c 0,-10.464 -6.097,-16.705 -16.754,-16.705 h -27.842 v 16.85 c 0,10.272 6.192,16.753 16.802,16.753 z" /></g><g
           transform="translate(439.3154,245.7002)"
           id="g72"><path
             id="path74"
             style="fill:#231f20;fill-opacity:1;fill-rule:nonzero;stroke:none"
             d="M 0,0 H -8.161 V 12.961 H -34.227 V 0 h -8.161 v 33.603 h 8.161 V 20.546 H -8.161 V 33.603 H 0 Z" /></g><g
           transform="translate(481.6987,271.3828)"
           id="g76"><path
             id="path78"
             style="fill:#231f20;fill-opacity:1;fill-rule:nonzero;stroke:none"
             d="m 0,0 h -19.49 c -6.72,0 -8.784,-2.064 -8.784,-8.978 v -8.736 h 19.489 c 6.577,0 8.785,1.92 8.785,8.881 z M 8.161,7.92 V -8.978 c 0,-10.464 -6.097,-16.705 -16.754,-16.705 h -27.842 v 16.85 c 0,10.272 6.192,16.753 16.802,16.753 z" /></g><g
           transform="translate(504.1597,245.7002)"
           id="g80"><path
             id="path82"
             style="fill:#231f20;fill-opacity:1;fill-rule:nonzero;stroke:none"
             d="M 0,0 H -8.161 V 33.603 H 0 V 20.546 H 12.77 L 24.194,33.603 H 34.419 L 22.418,20.21 C 30.291,18.674 34.947,13.058 34.947,3.889 V 0 h -8.208 v 4.08 c 0,5.953 -2.929,8.929 -8.785,8.929 H 0 Z" /></g><g
           transform="translate(553.168,279.3027)"
           id="g84"><path
             id="path86"
             style="fill:#231f20;fill-opacity:1;fill-rule:nonzero;stroke:none"
             d="m 0,0 v -16.369 c 0,-6.193 4.176,-9.265 12.577,-9.265 H 26.066 V 0 h 8.161 V -33.603 H 10.465 c -11.377,0 -18.626,6.241 -18.626,17.762 l 0,15.841 z" /></g><g
           transform="translate(621.1348,279.3027)"
           id="g88"><path
             id="path90"
             style="fill:#231f20;fill-opacity:1;fill-rule:nonzero;stroke:none"
             d="m 0,0 v -16.369 c 0,-6.193 4.176,-9.265 12.577,-9.265 H 26.066 V 0 h 8.161 V -33.603 H 10.465 c -11.377,0 -18.626,6.241 -18.626,17.762 l 0,15.841 z" /></g><g
           transform="translate(706.7207,245.7002)"
           id="g92"><path
             id="path94"
             style="fill:#231f20;fill-opacity:1;fill-rule:nonzero;stroke:none"
             d="m 0,0 h -8.641 c -9.216,12.577 -18.097,20.786 -26.834,24.098 -0.624,0.192 -1.392,0.528 -2.208,0.816 0.096,-1.2 0.144,-2.016 0.144,-2.352 V 0 h -7.969 v 33.603 h 7.057 C -27.698,30.146 -17.713,22.37 -9.313,13.249 l 1.489,-1.584 c -0.096,1.008 -0.145,1.729 -0.145,2.208 v 19.73 H 0 Z" /></g><path
           id="path96"
           style="fill:#231f20;fill-opacity:1;fill-rule:nonzero;stroke:none"
           d="m 721.213,245.7 h -8.161 v 33.603 h 8.161 z" /><g
           transform="translate(772.0957,279.3027)"
           id="g98"><path
             id="path100"
             style="fill:#231f20;fill-opacity:1;fill-rule:nonzero;stroke:none"
             d="M 0,0 -23.378,-36.531 -46.66,0 h 9.649 l 11.761,-19.729 c 0.72,-1.201 1.344,-2.497 1.824,-3.745 0.528,1.248 1.248,2.496 1.968,3.697 L -9.648,0 Z" /></g><path
           id="path102"
           style="fill:#231f20;fill-opacity:1;fill-rule:nonzero;stroke:none"
           d="m 782.987,245.7 h -6.672 v 7.969 h 6.672 z" /><g
           transform="translate(586.5918,231.6797)"
           id="g104"><path
             id="path106"
             style="fill:#231f20;fill-opacity:1;fill-rule:nonzero;stroke:none"
             d="m 0,0 h -16.044 c -1.987,0 -3.108,-0.979 -3.36,-2.995 H 0.084 V -6.72 c 0,-5.487 -2.968,-8.259 -8.904,-8.259 h -15.119 v 4.648 h 16.127 c 1.932,0 3.024,1.035 3.332,2.939 h -19.459 v 3.752 c 0,5.489 2.967,8.26 8.931,8.26 L 0,4.62 Z" /></g><path
           id="path108"
           style="fill:#231f20;fill-opacity:1;fill-rule:nonzero;stroke:none"
           d="m 594.908,216.7 h -4.76 v 19.6 h 4.76 z" /><g
           transform="translate(625.1758,216.7002)"
           id="g110"><path
             id="path112"
             style="fill:#231f20;fill-opacity:1;fill-rule:nonzero;stroke:none"
             d="m 0,0 h -5.04 c -5.376,7.336 -10.557,12.124 -15.652,14.056 -0.365,0.112 -0.812,0.308 -1.288,0.476 0.056,-0.7 0.084,-1.177 0.084,-1.372 V 0 h -4.648 v 19.6 h 4.115 c 6.273,-2.016 12.097,-6.552 16.996,-11.872 L -4.564,6.804 C -4.62,7.392 -4.648,7.812 -4.648,8.092 V 19.6 H 0 Z" /></g><g
           transform="translate(653.1465,216.7002)"
           id="g114"><path
             id="path116"
             style="fill:#231f20;fill-opacity:1;fill-rule:nonzero;stroke:none"
             d="m 0,0 h -24.472 v 9.828 c 0,6.132 3.556,9.772 9.8,9.772 H 0 v -4.621 h -14.588 c -3.416,0 -5.124,-1.735 -5.124,-5.235 V 4.648 H 0 Z" /></g><g
           transform="translate(680.8672,231.6797)"
           id="g118"><path
             id="path120"
             style="fill:#231f20;fill-opacity:1;fill-rule:nonzero;stroke:none"
             d="m 0,0 h -20.104 v -2.995 h 19.6 v -4.397 h -19.349 c 0.588,-1.904 1.96,-2.939 4.873,-2.939 H 0 v -4.648 h -15.064 c -6.077,0 -9.8,3.751 -9.8,9.744 V 4.62 L 0,4.62 Z" /></g><g
           transform="translate(699.0664,216.7002)"
           id="g122"><path
             id="path124"
             style="fill:#231f20;fill-opacity:1;fill-rule:nonzero;stroke:none"
             d="m 0,0 v 10.528 c 0,2.968 -1.316,4.451 -3.948,4.451 H -5.181 V 19.6 h 1.345 c 5.823,0 8.624,-2.8 8.624,-8.988 V 0 Z" /></g><g
           transform="translate(726.3105,228.6846)"
           id="g126"><path
             id="path128"
             style="fill:#231f20;fill-opacity:1;fill-rule:nonzero;stroke:none"
             d="m 0,0 v 2.995 h -11.396 c -1.905,0 -3.024,-0.979 -3.333,-2.995 z m -19.208,-7.336 h 15.819 c 1.989,0 3.053,1.035 3.332,2.94 h -19.235 v 3.751 c 0,5.489 2.968,8.26 8.932,8.26 H 4.508 v -11.34 c 0,-5.487 -2.968,-8.259 -8.933,-8.259 h -14.783 z" /></g><g
           transform="translate(753.4697,228.6846)"
           id="g130"><path
             id="path132"
             style="fill:#231f20;fill-opacity:1;fill-rule:nonzero;stroke:none"
             d="m 0,0 v 2.995 h -11.396 c -1.905,0 -3.024,-0.979 -3.333,-2.995 z m -19.208,-7.336 h 15.819 c 1.989,0 3.052,1.035 3.332,2.94 h -19.235 v 3.751 c 0,5.489 2.968,8.26 8.932,8.26 H 4.508 v -11.34 c 0,-5.487 -2.968,-8.259 -8.933,-8.259 h -14.783 z" /></g><g
           transform="translate(785.6123,236.2998)"
           id="g134"><path
             id="path136"
             style="fill:#231f20;fill-opacity:1;fill-rule:nonzero;stroke:none"
             d="M 0,0 V -9.855 C 0,-15.96 -3.528,-19.6 -9.8,-19.6 h -14.364 v 4.649 h 14.28 c 2.912,0 4.284,0.867 4.872,2.939 H -16.1 v 4.397 h 11.34 v 2.995 h -11.62 c -1.932,0 -3.052,-0.98 -3.332,-2.995 h -4.563 C -24.052,-2.52 -21.084,0 -15.344,0 Z" /></g><g
           transform="translate(229,426.5)"
           id="g138"><path
             id="path140"
             style="fill:#252122;fill-opacity:1;fill-rule:nonzero;stroke:none"
             d="M 0,0 C -6.449,0 -6.449,-10 0,-10 6.449,-10 6.449,0 0,0" /></g><g
           transform="translate(230,413.5)"
           id="g142"><path
             id="path144"
             style="fill:#252122;fill-opacity:1;fill-rule:nonzero;stroke:none"
             d="M 0,0 C -6.449,0 -6.449,-10 0,-10 6.449,-10 6.449,0 0,0" /></g><g
           transform="translate(367.6744,338.1232)"
           id="g146"><path
             id="path148"
             style="fill:#252122;fill-opacity:1;fill-rule:nonzero;stroke:none"
             d="M 0,0 C 1.433,1.592 1.558,3.445 0.92,5.009 0.419,6.678 -0.876,8.072 -2.968,8.33 -4.028,8.551 -5.162,8.399 -6.221,7.722 -6.224,7.721 -6.227,7.719 -6.229,7.718 -6.295,7.675 -6.361,7.631 -6.427,7.585 -6.711,7.393 -6.967,7.173 -7.193,6.928 -7.198,6.923 -7.204,6.918 -7.21,6.912 -7.219,6.903 -7.226,6.893 -7.235,6.884 -7.267,6.849 -7.3,6.814 -7.331,6.777 c -3.737,-3.925 -6.041,-8.79 -7.165,-14.071 -1.338,-6.289 8.301,-8.964 9.643,-2.658 0.784,3.685 2.064,7.049 4.714,9.793 0.007,0.008 0.012,0.015 0.019,0.022 0.041,0.045 0.081,0.09 0.12,0.137" /></g><g
           transform="translate(384.8214,366.8292)"
           id="g150"><path
             id="path152"
             style="fill:#252122;fill-opacity:1;fill-rule:nonzero;stroke:none"
             d="m 0,0 c -1.003,3.266 -0.997,6.734 -2,10 -1.888,6.145 -11.542,3.523 -9.643,-2.658 1.004,-3.266 0.997,-6.735 2,-10 C -7.755,-8.804 1.899,-6.181 0,0" /></g><g
           transform="translate(396.6786,360.0792)"
           id="g154"><path
             id="path156"
             style="fill:#252122;fill-opacity:1;fill-rule:nonzero;stroke:none"
             d="m 0,0 c -1.704,-5.285 -3.325,-11.027 -6.226,-15.792 -3.005,-4.936 -4.306,-9.157 -5.774,-14.708 -1.651,-6.242 7.996,-8.888 9.643,-2.658 0.563,2.128 0.957,4.288 1.481,6.426 0.647,2.638 2.7,4.932 4.085,7.207 3.021,4.963 4.662,11.371 6.434,16.867 C 11.627,3.497 1.97,6.112 0,0" /></g></g></g></g></svg>