<?xml version="1.0" standalone="no"?>
<!DOCTYPE svg PUBLIC "-//W3C//DTD SVG 20010904//EN"
 "http://www.w3.org/TR/2001/REC-SVG-20010904/DTD/svg10.dtd">
<svg version="1.0" xmlns="http://www.w3.org/2000/svg"
 width="1350.000000pt" height="675.000000pt" viewBox="0 0 1350.000000 675.000000"
 preserveAspectRatio="xMidYMid meet">
<metadata>
Created by potrace 1.10, written by Peter Selinger 2001-2011
</metadata>
<g transform="translate(0.000000,675.000000) scale(0.100000,-0.100000)"
fill="#000000" stroke="none">
<path d="M8455 6384 c-38 -30 -80 -60 -92 -67 -22 -12 -187 -114 -241 -149
-15 -10 -36 -22 -47 -28 -11 -6 -33 -19 -50 -30 -40 -25 -338 -172 -395 -194
-25 -10 -58 -24 -75 -31 -16 -7 -50 -20 -75 -30 -25 -9 -59 -23 -75 -30 -17
-7 -45 -16 -62 -19 -18 -4 -35 -12 -38 -17 -4 -5 -16 -9 -29 -9 -12 0 -31 -7
-42 -15 -10 -8 -27 -15 -36 -15 -10 0 -32 -6 -50 -14 -53 -22 -109 -42 -173
-61 -61 -18 -128 -38 -200 -60 -76 -23 -300 -87 -415 -118 -68 -19 -265 -60
-435 -91 -44 -8 -107 -20 -140 -26 -33 -6 -98 -16 -145 -21 -47 -5 -92 -12
-100 -15 -14 -5 -97 -11 -501 -33 -158 -9 -201 -17 -163 -32 10 -4 41 -8 67
-8 26 -1 76 -7 110 -15 173 -40 550 -54 752 -28 291 37 343 42 375 42 33 0
145 17 270 41 30 6 69 13 85 15 101 14 225 43 340 79 40 12 103 30 213 61 31
9 73 22 92 29 19 7 62 20 95 30 33 10 74 24 90 30 51 20 99 36 130 45 17 5 55
18 85 30 65 26 131 43 138 36 5 -6 -16 -64 -31 -83 -5 -7 -42 -77 -82 -155
-40 -79 -99 -192 -130 -253 -113 -217 -276 -537 -495 -970 -122 -242 -242
-478 -266 -525 l-44 -85 -283 -6 c-190 -4 -292 -9 -314 -18 -35 -14 -67 -52
-102 -121 -13 -25 -45 -85 -71 -135 -27 -49 -67 -126 -90 -170 -23 -44 -64
-120 -90 -170 -27 -49 -67 -126 -90 -170 -23 -44 -52 -98 -65 -120 -30 -51
-33 -119 -5 -155 l19 -25 419 -3 c247 -2 429 1 443 7 19 7 45 48 108 173 46
89 119 231 161 313 43 83 104 200 135 260 31 61 79 151 105 200 82 153 105
195 182 345 72 139 168 324 269 515 26 50 73 140 104 200 31 61 86 164 121
230 35 66 82 156 105 200 22 44 69 134 104 200 35 66 82 156 105 200 22 44 63
121 90 170 27 50 67 126 90 170 23 44 57 107 76 140 18 33 45 83 59 110 14 28
30 57 35 65 17 27 186 315 193 330 14 28 33 58 46 74 9 10 10 20 5 25 -5 5
-39 -14 -79 -45z m-1897 -2968 c3 -11 -9 -47 -26 -80 -158 -320 -289 -580
-311 -621 l-28 -50 -114 0 c-105 0 -114 1 -118 20 -2 10 3 33 12 50 114 233
131 265 245 453 48 79 94 155 102 169 26 44 65 65 132 73 86 10 102 8 106 -14z"/>
<path d="M3902 5780 c-18 -21 -52 -63 -75 -93 -149 -193 -194 -244 -422 -472
-200 -200 -248 -245 -330 -310 -27 -21 -58 -46 -67 -55 -24 -22 -289 -212
-378 -271 -56 -37 -161 -105 -192 -124 -203 -124 -285 -169 -443 -240 -33 -15
-89 -40 -125 -57 -97 -45 -124 -57 -300 -135 -59 -26 -93 -40 -140 -58 -25 -9
-58 -23 -75 -31 -16 -7 -42 -16 -58 -20 -15 -3 -30 -10 -33 -15 -3 -5 -13 -9
-22 -9 -9 0 -30 -7 -46 -15 -15 -8 -34 -15 -42 -15 -7 0 -28 -6 -46 -14 -18
-7 -59 -21 -91 -30 -151 -42 -163 -45 -342 -89 -106 -27 -209 -47 -236 -47
-35 0 -89 -20 -89 -33 0 -14 292 -1 400 19 47 8 121 22 165 30 44 8 100 20
125 26 25 6 66 14 92 19 26 4 56 12 67 18 11 6 30 11 43 11 13 0 43 6 68 14
25 8 71 21 103 30 149 42 258 74 307 91 19 7 51 18 70 24 19 7 49 17 65 21 29
8 54 18 165 60 30 12 66 25 80 30 14 5 50 18 80 30 100 39 142 51 148 46 3 -3
-22 -61 -55 -128 -97 -197 -151 -311 -223 -473 -21 -48 -76 -184 -97 -240 -8
-22 -20 -51 -25 -65 -6 -14 -14 -36 -18 -50 -5 -14 -18 -50 -30 -80 -12 -30
-25 -68 -30 -85 -8 -28 -16 -53 -45 -135 -7 -19 -21 -62 -30 -95 -10 -33 -22
-71 -28 -85 -5 -14 -13 -41 -17 -60 -5 -19 -13 -48 -18 -65 -34 -97 -72 -268
-72 -321 0 -22 -7 -77 -15 -124 -8 -47 -15 -111 -15 -144 0 -63 23 -177 48
-241 17 -43 78 -115 98 -115 6 0 25 -7 40 -15 41 -21 160 -19 258 5 91 22 113
32 226 104 122 79 297 225 444 372 148 147 288 305 399 451 27 35 57 68 68 73
16 9 21 7 29 -15 6 -15 10 -37 10 -49 0 -41 41 -118 85 -161 86 -84 192 -92
335 -27 56 25 167 121 235 203 79 95 211 281 251 354 45 83 91 166 110 200 12
22 34 61 47 86 14 25 35 63 48 85 79 139 289 603 289 639 0 14 -30 9 -100 -16
-107 -37 -159 -55 -253 -86 -75 -24 -117 -56 -117 -89 0 -7 -7 -25 -15 -41 -8
-15 -26 -55 -41 -88 -159 -361 -296 -601 -391 -685 -53 -46 -95 -53 -114 -19
-16 30 15 158 69 279 8 19 21 49 28 65 6 17 19 47 28 67 9 21 23 52 30 70 8
18 21 49 29 68 8 19 22 51 30 70 32 75 51 116 64 142 29 58 13 69 -67 44 -25
-8 -71 -21 -102 -30 -123 -34 -174 -49 -213 -62 -23 -8 -50 -14 -60 -14 -32 0
-79 -35 -96 -71 -80 -165 -134 -268 -170 -324 -10 -16 -22 -36 -25 -44 -11
-22 -153 -231 -191 -280 -115 -151 -330 -361 -403 -394 -8 -4 -33 -18 -55 -32
-77 -47 -140 -30 -173 48 -26 60 1 256 54 400 8 20 21 55 29 77 8 22 22 59 31
83 9 23 22 56 29 72 7 17 23 55 35 85 23 58 249 513 355 715 35 66 95 183 135
260 113 221 138 264 298 533 84 139 152 255 152 257 0 2 12 21 26 42 14 21 30
47 35 58 5 11 17 32 27 47 9 15 51 82 92 148 41 67 82 132 90 145 50 76 210
348 210 355 0 6 4 10 9 10 12 0 22 28 13 34 -5 3 -23 -13 -40 -34z"/>
<path d="M13194 5406 c-3 -9 -14 -16 -24 -16 -11 0 -22 -5 -25 -11 -4 -5 -17
-15 -28 -20 -12 -5 -35 -18 -52 -29 -16 -11 -39 -24 -50 -30 -11 -6 -33 -19
-50 -30 -16 -11 -37 -23 -45 -27 -45 -21 -401 -274 -530 -376 -8 -7 -44 -34
-80 -62 -130 -99 -308 -251 -480 -410 -158 -146 -488 -488 -620 -641 -261
-303 -419 -563 -542 -889 -21 -57 -48 -192 -48 -247 0 -51 25 -143 49 -176 45
-63 170 -167 261 -216 96 -51 175 -132 219 -222 26 -53 31 -75 31 -137 0 -144
-65 -269 -225 -435 -109 -114 -570 -452 -616 -452 -6 0 -23 -6 -37 -13 -66
-34 -238 -104 -275 -113 -15 -3 -30 -10 -33 -15 -3 -5 -14 -9 -24 -9 -11 0
-34 -6 -52 -14 -39 -16 -162 -51 -318 -91 -36 -9 -88 -23 -116 -31 -28 -8 -63
-14 -78 -14 -15 0 -55 -6 -89 -14 -136 -31 -495 -73 -694 -81 -78 -3 -165 -10
-195 -16 -70 -13 -1284 -13 -1427 1 -58 6 -182 14 -276 20 -93 5 -211 14 -261
21 -83 11 -155 7 -140 -8 3 -4 41 -10 84 -14 42 -5 104 -13 137 -18 58 -10
148 -22 430 -56 72 -8 151 -15 176 -15 26 0 71 -5 100 -10 30 -6 124 -15 209
-20 85 -5 211 -14 280 -19 69 -6 190 -16 270 -22 80 -6 359 -14 620 -16 494
-6 840 9 1056 43 50 8 111 14 135 14 62 0 221 30 402 75 31 8 85 22 120 31
104 26 170 46 205 60 18 8 39 14 47 14 8 0 31 7 52 16 21 9 52 22 68 29 27 11
207 99 273 134 15 8 77 47 137 87 192 126 338 282 393 419 32 80 52 154 52
194 1 20 5 56 10 81 15 72 -5 203 -42 280 -39 80 -79 131 -203 262 -108 114
-201 233 -228 291 -22 48 -23 189 -2 267 8 30 15 68 15 84 0 53 38 168 106
321 9 22 23 54 30 70 28 66 117 245 159 320 25 44 51 91 58 105 6 14 31 53 54
88 24 35 43 65 43 68 0 10 309 407 416 534 149 177 501 535 644 655 98 82 526
405 537 405 16 1 54 48 43 55 -5 3 -13 -1 -16 -9z"/>
<path d="M10803 4448 c-18 -28 -31 -53 -101 -190 -40 -79 -97 -188 -126 -243
l-53 -100 -139 -3 c-125 -2 -140 -5 -161 -24 -12 -12 -26 -31 -29 -42 -4 -12
-12 -28 -19 -36 -8 -8 -17 -27 -20 -42 l-7 -28 136 0 c102 0 136 -3 136 -12 0
-7 -29 -68 -63 -135 -64 -127 -231 -455 -391 -767 -50 -98 -99 -184 -108 -189
-33 -21 -78 69 -49 99 5 5 49 86 97 179 48 94 114 222 147 285 32 63 70 135
83 159 13 24 20 49 16 56 -4 7 -27 30 -52 51 -65 56 -131 116 -149 137 -8 9
-25 17 -37 17 -12 0 -24 -8 -28 -17 -3 -10 -41 -85 -85 -168 -75 -143 -140
-267 -300 -580 -39 -77 -81 -147 -94 -156 -17 -12 -42 -14 -110 -11 l-89 4 7
26 c3 15 18 50 32 77 101 192 128 242 178 340 32 61 77 148 101 194 24 47 44
93 44 103 0 24 -226 282 -240 273 -3 -2 -30 -50 -60 -107 -29 -57 -74 -143
-100 -193 -27 -49 -74 -139 -105 -200 -32 -60 -86 -164 -120 -230 -35 -66 -78
-149 -95 -185 -18 -36 -41 -83 -51 -105 -15 -30 -19 -56 -17 -105 3 -63 4 -65
33 -71 17 -4 386 -7 821 -8 618 -1 794 2 806 12 25 19 80 118 74 133 -4 10
-36 14 -123 16 -115 3 -118 4 -121 26 -2 13 20 69 54 135 31 62 99 193 150
292 50 99 131 257 179 350 48 94 99 193 114 220 l28 50 113 3 c63 1 120 7 127
13 16 14 73 127 73 146 0 10 -23 13 -99 13 -61 0 -102 4 -107 11 -3 6 34 89
82 185 49 95 108 211 131 256 23 45 39 86 37 90 -9 14 -342 10 -351 -4z"/>
<path d="M4718 3840 c-37 -20 -87 -77 -123 -140 -16 -28 -20 -54 -20 -128 l0
-94 36 -33 c42 -38 113 -53 176 -36 136 37 233 263 158 373 -51 76 -146 100
-227 58z"/>
<path d="M5089 3728 c-16 -35 -118 -228 -152 -288 -11 -19 -45 -82 -75 -140
-31 -58 -70 -132 -88 -165 -18 -33 -46 -85 -62 -115 -16 -30 -53 -100 -82
-155 -71 -132 -122 -228 -157 -293 -24 -45 -25 -54 -13 -62 8 -5 81 -10 161
-10 126 0 150 3 167 18 11 9 46 67 78 127 99 188 115 218 148 280 18 33 59
110 91 170 32 61 72 135 89 167 17 31 44 80 60 110 16 29 34 56 40 60 17 12
175 9 197 -2 27 -15 24 -51 -9 -107 -16 -26 -38 -68 -51 -93 -12 -25 -44 -85
-72 -135 -27 -49 -60 -112 -75 -140 -14 -27 -47 -90 -74 -140 -26 -49 -67
-126 -90 -170 -22 -44 -46 -87 -52 -96 -6 -9 -8 -24 -5 -33 6 -14 26 -16 154
-16 81 0 158 3 170 6 12 3 27 18 33 33 5 14 32 67 59 116 26 50 74 140 106
200 32 61 73 137 91 170 18 33 51 96 74 140 23 44 52 99 64 122 13 22 26 52
29 65 29 118 29 116 11 153 -9 19 -31 45 -48 58 -30 21 -36 22 -263 19 -127
-2 -245 -1 -261 3 -20 4 -40 20 -59 48 -15 23 -30 44 -34 47 -3 3 -18 22 -33
43 -16 20 -34 37 -40 37 -7 0 -19 -15 -27 -32z"/>
<path d="M7191 3733 c-11 -26 -27 -57 -118 -223 -20 -35 -56 -103 -81 -150
-24 -47 -61 -114 -80 -150 -42 -76 -85 -155 -140 -260 -22 -41 -56 -104 -76
-140 -19 -36 -47 -87 -61 -115 -15 -27 -42 -79 -60 -114 -19 -35 -32 -67 -29
-72 6 -11 314 -12 330 -1 6 4 25 32 41 62 17 30 44 80 60 110 17 30 44 81 62
113 17 31 44 81 60 110 15 28 42 77 58 107 17 30 47 87 68 125 21 39 46 84 56
100 10 17 30 53 44 80 69 131 61 125 169 125 125 0 138 -15 90 -106 -15 -27
-51 -96 -82 -154 -31 -58 -70 -132 -88 -165 -18 -33 -45 -85 -61 -115 -40 -76
-135 -254 -169 -316 -44 -82 -40 -84 133 -84 81 0 158 3 170 6 12 3 27 18 33
33 5 14 32 67 59 116 27 50 68 126 91 170 22 44 63 121 90 170 27 50 67 126
90 170 23 44 59 112 80 150 32 59 39 80 39 131 1 70 -16 101 -73 128 -29 13
-74 16 -289 16 l-254 0 -29 43 c-16 23 -39 53 -52 67 -12 14 -25 33 -28 43 -8
27 -41 21 -53 -10z"/>
<path d="M8797 3610 c-24 -19 -40 -20 -277 -20 -316 0 -321 -1 -406 -138 -21
-35 -47 -75 -56 -90 -10 -15 -22 -36 -28 -47 -6 -11 -24 -42 -41 -70 -16 -27
-37 -63 -45 -80 -8 -16 -30 -57 -49 -90 -18 -33 -77 -146 -130 -250 -108 -212
-114 -240 -62 -279 27 -20 43 -21 268 -24 222 -3 241 -4 260 -23 17 -17 34
-19 187 -19 196 0 177 -10 244 125 24 50 78 153 118 230 67 128 117 223 242
465 24 47 70 134 102 194 31 59 55 115 52 122 -4 11 -40 14 -179 14 -159 0
-177 -2 -200 -20z m-110 -186 c3 -9 1 -24 -5 -33 -7 -9 -15 -23 -18 -31 -3 -8
-9 -22 -14 -30 -7 -13 -183 -358 -276 -540 -44 -88 -48 -90 -142 -93 -65 -2
-85 1 -98 15 -16 16 -14 23 36 120 29 57 74 144 100 193 44 83 86 161 160 304
42 81 61 95 133 102 108 10 117 10 124 -7z"/>
<path d="M4665 3370 c-33 -4 -90 -8 -126 -9 -52 -1 -70 -5 -83 -20 -16 -18
-47 -73 -132 -236 -14 -27 -41 -77 -59 -110 -19 -33 -45 -82 -59 -110 -15 -27
-48 -90 -76 -140 -27 -49 -59 -110 -72 -135 -12 -25 -29 -53 -36 -62 -8 -10
-12 -24 -9 -33 5 -13 33 -15 175 -15 196 0 177 -9 242 120 23 47 77 153 120
235 43 83 111 214 152 293 40 78 79 152 85 165 18 32 16 57 -4 57 -10 0 -27 2
-38 4 -11 2 -47 0 -80 -4z"/>
<path d="M3960 2300 c-226 -5 -236 -6 -268 -28 -34 -25 -75 -102 -70 -130 7
-36 92 -26 110 13 14 31 54 47 109 43 l44 -3 3 -169 c1 -96 7 -175 13 -182 8
-10 85 -9 97 2 2 1 3 70 3 153 -2 214 -10 200 112 203 l102 3 3 46 c2 32 -1
48 -10 50 -7 2 -119 2 -248 -1z"/>
<path d="M4655 2300 c-189 -4 -235 -8 -260 -22 -45 -24 -71 -57 -95 -117 -18
-46 -20 -70 -18 -185 l3 -131 235 0 c129 0 246 3 260 7 39 11 87 59 109 109
18 38 21 65 21 190 0 109 -3 148 -12 150 -7 2 -116 2 -243 -1z m141 -126 c7
-28 0 -159 -11 -185 -3 -9 -23 -24 -43 -33 -30 -14 -64 -16 -187 -14 l-150 3
0 105 0 104 34 23 c32 22 44 23 192 23 l159 0 6 -26z"/>
<path d="M5013 2303 c-17 -6 -19 -443 -2 -460 10 -10 87 -7 99 4 3 3 7 41 10
86 l5 82 175 0 175 0 5 -82 c3 -45 7 -84 10 -86 9 -9 85 -11 98 -3 15 9 17
437 2 452 -5 5 -31 7 -57 4 l-48 -5 -3 -87 -3 -88 -179 0 -180 0 0 85 c0 60
-4 87 -12 89 -25 8 -83 13 -95 9z"/>
<path d="M6421 2302 c-8 -3 -11 -69 -11 -232 0 -245 -1 -241 53 -235 47 5 56
21 59 103 l3 77 125 3 c69 2 140 0 159 -3 51 -10 79 -47 87 -115 l6 -58 42 -4
c55 -6 66 5 66 64 0 84 -44 156 -121 197 -19 10 -35 25 -37 32 -1 8 27 45 63
83 65 68 76 85 53 87 -85 6 -113 0 -138 -29 -14 -16 -49 -57 -79 -91 l-54 -62
-86 3 -86 3 -5 85 -5 85 -41 5 c-23 3 -46 4 -53 2z"/>
<path d="M7110 2302 c-6 -2 -10 -58 -10 -145 1 -113 4 -149 18 -178 25 -51 52
-81 97 -109 39 -24 47 -25 257 -28 l217 -4 6 24 c3 12 4 115 3 228 l-3 205
-48 6 c-30 3 -51 1 -57 -6 -5 -6 -11 -88 -12 -181 l-3 -169 -109 -3 c-123 -3
-188 12 -227 54 -23 24 -24 34 -27 164 l-4 138 -44 4 c-24 2 -48 2 -54 0z"/>
<path d="M8070 2302 c-6 -2 -10 -56 -10 -138 0 -180 23 -237 120 -297 33 -21
46 -22 255 -22 l220 0 0 225 0 225 -55 0 -55 0 -5 -175 -5 -175 -109 -3 c-123
-3 -188 12 -226 53 -22 23 -24 36 -28 164 l-5 139 -43 4 c-24 2 -48 2 -54 0z"/>
<path d="M8759 2299 c-14 -8 -12 -451 1 -459 14 -9 70 -4 81 7 5 5 10 80 11
168 3 186 3 186 94 131 99 -60 177 -133 296 -279 19 -23 33 -29 68 -31 25 -1
51 2 58 7 17 13 18 453 1 459 -7 2 -30 1 -53 -2 l-41 -5 -3 -132 c-2 -99 -6
-133 -15 -133 -7 0 -44 30 -82 66 -81 75 -169 138 -255 180 -38 18 -144 34
-161 23z"/>
<path d="M9515 2301 l-40 -6 -3 -205 c-1 -113 0 -215 3 -226 4 -17 14 -23 47
-26 24 -3 49 -1 56 5 9 7 12 66 12 232 0 194 -2 224 -16 229 -9 3 -16 5 -17 5
-1 -1 -20 -5 -42 -8z"/>
<path d="M5805 2283 c-44 -23 -72 -51 -95 -95 -17 -34 -20 -58 -20 -187 0
-108 3 -151 13 -157 6 -5 116 -7 242 -4 214 5 232 6 265 27 82 51 112 138 108
315 l-3 113 -240 2 c-203 2 -245 0 -270 -14z m393 -182 c2 -84 1 -96 -19 -117
-37 -39 -66 -45 -224 -42 l-150 3 -3 77 c-6 166 11 179 238 176 l155 -3 3 -94z"/>
<path d="M9670 2288 c0 -7 23 -46 50 -86 28 -41 50 -75 50 -78 0 -2 19 -32 43
-67 24 -34 46 -69 50 -77 4 -8 15 -27 25 -41 9 -15 30 -47 45 -73 17 -27 36
-46 47 -46 11 0 33 25 59 68 23 37 47 76 54 86 7 11 31 49 55 84 23 35 42 65
42 67 0 2 22 36 50 77 27 40 50 79 50 86 0 8 -19 12 -60 12 l-59 0 -88 -149
c-87 -149 -115 -177 -130 -133 -3 9 -42 77 -85 150 l-79 132 -60 0 c-40 0 -59
-4 -59 -12z"/>
<path d="M10377 1933 c-12 -11 -8 -80 6 -90 6 -6 21 -10 32 -10 33 0 45 17 45
63 l0 44 -38 0 c-21 0 -42 -3 -45 -7z"/>
<path d="M7390 1673 c-33 -30 -52 -85 -40 -118 6 -18 19 -20 131 -25 108 -4
124 -7 127 -22 3 -16 -8 -18 -121 -18 -130 0 -155 -8 -141 -44 5 -14 26 -16
143 -16 133 0 138 1 160 24 29 30 41 113 20 127 -8 5 -67 9 -131 9 -94 0 -118
3 -118 14 0 28 29 35 141 38 l114 3 0 25 0 25 -127 3 c-127 3 -127 2 -158 -25z"/>
<path d="M7738 1688 c-2 -7 -4 -67 -4 -133 l1 -120 30 0 30 0 0 130 0 130 -26
3 c-15 2 -28 -3 -31 -10z"/>
<path d="M7859 1690 c0 -5 0 -62 0 -125 0 -63 0 -120 0 -126 1 -6 13 -9 29 -7
27 3 27 3 28 86 1 46 6 88 12 94 17 17 76 -19 151 -94 39 -39 71 -75 71 -80 0
-5 17 -8 38 -6 l37 3 0 130 0 130 -25 0 c-24 0 -25 -2 -28 -78 -3 -92 -9 -93
-84 -24 -26 23 -74 57 -107 75 -59 31 -120 42 -122 22z"/>
<path d="M8339 1676 c-44 -30 -61 -83 -57 -176 l3 -65 170 0 170 0 0 25 0 25
-137 3 c-100 2 -138 6 -139 15 -4 50 5 95 23 114 19 20 32 23 137 25 l116 3 0
25 0 25 -125 3 c-119 2 -127 1 -161 -22z"/>
<path d="M8677 1694 c-12 -12 -8 -160 6 -192 7 -17 25 -40 39 -52 25 -19 38
-20 160 -18 l133 3 0 25 0 25 -130 5 c-107 4 -130 8 -130 20 0 12 23 16 125
20 120 5 125 6 128 27 4 29 -12 32 -153 36 -103 2 -110 3 -110 22 0 19 8 20
135 25 l135 5 0 25 0 25 -166 3 c-91 1 -168 -1 -172 -4z"/>
<path d="M9207 1693 c-17 -16 -5 -45 22 -54 39 -14 50 -41 53 -129 3 -71 4
-75 27 -78 13 -2 26 1 30 6 3 6 5 51 3 101 -3 87 -5 93 -36 126 -32 33 -80 47
-99 28z"/>
<path d="M9448 1684 c-49 -26 -77 -116 -45 -142 7 -6 64 -13 127 -14 100 -3
115 -5 118 -20 3 -16 -8 -18 -115 -18 -125 0 -147 -6 -141 -36 3 -17 15 -19
139 -22 134 -3 135 -2 159 23 22 23 25 38 30 126 3 58 1 104 -4 110 -17 16
-237 10 -268 -7z m207 -69 c0 -18 -8 -20 -92 -23 -85 -3 -93 -1 -93 16 0 30 9
33 100 30 77 -3 85 -5 85 -23z"/>
<path d="M9830 1683 c-47 -32 -66 -79 -54 -129 6 -23 9 -23 133 -26 104 -3
126 -6 126 -18 0 -12 -21 -15 -122 -18 -125 -3 -153 -12 -139 -47 4 -12 29
-15 139 -15 126 0 135 1 161 24 27 23 28 27 29 132 l2 109 -125 3 c-105 2
-129 0 -150 -15z m210 -68 c0 -25 0 -25 -95 -25 -71 0 -95 3 -95 13 0 28 25
37 107 37 82 0 83 0 83 -25z"/>
<path d="M10213 1681 c-37 -23 -56 -53 -47 -75 9 -24 37 -19 64 9 22 23 30 25
112 25 87 0 89 -1 86 -22 -3 -21 -10 -23 -73 -28 -67 -5 -70 -6 -70 -30 0 -24
4 -25 65 -30 49 -4 65 -9 65 -20 0 -12 -23 -16 -125 -20 l-125 -5 0 -25 0 -25
130 -3 130 -3 32 29 c34 32 47 91 41 187 l-3 50 -125 3 c-109 2 -129 0 -157
-17z"/>
</g>
</svg>
